<svg xmlns="http://www.w3.org/2000/svg" version="1.1" xmlns:xlink="http://www.w3.org/1999/xlink" xmlns:svgjs="http://svgjs.dev/svgjs" viewBox="0 0 800 800"><defs><filter id="ssspot-filter" x="-20%" y="-20%" width="140%" height="140%" filterUnits="objectBoundingBox" primitiveUnits="userSpaceOnUse" color-interpolation-filters="sRGB">
	<feTurbulence type="turbulence" baseFrequency="0.022 0.218" numOctaves="2" seed="8" stitchTiles="stitch" x="0%" y="0%" width="100%" height="100%" result="turbulence"></feTurbulence>
	<feGaussianBlur stdDeviation="0 3" x="0%" y="0%" width="100%" height="100%" in="turbulence" edgeMode="duplicate" result="blur"></feGaussianBlur>
	<feDisplacementMap in="SourceGraphic" in2="blur" scale="32" xChannelSelector="R" yChannelSelector="B" x="0%" y="0%" width="100%" height="100%" result="displacementMap"></feDisplacementMap>
</filter></defs><rect width="100%" height="100%" fill="#d0e5de"></rect><g fill="#aadfcc" filter="url(#ssspot-filter)"><circle r="9.626493117826199" cx="371.6472332401206" cy="69.93819651625203" opacity="0.9262991198940833"></circle><circle r="5.21666763684362" cx="692.2611254957757" cy="26.971632410754324" opacity="0.12281009513798119"></circle><circle r="6.577595725731766" cx="307.3904626203357" cy="532.7922657406277" opacity="0.4490483912735693"></circle><circle r="5.9579575689104844" cx="650.5436224519872" cy="142.83663214081878" opacity="0.6353132323611964"></circle><circle r="3.857117658770374" cx="479.2317183693846" cy="13.20024137306774" opacity="0.7818625708993685"></circle><circle r="3.598361783081792" cx="548.1205639054675" cy="565.9556876568565" opacity="0.518721775535061"></circle><circle r="6.700029394235232" cx="711.1680775821327" cy="175.6966780424652" opacity="0.2215848111246252"></circle><circle r="4.890998359820145" cx="387.9556809188837" cy="565.6389654906533" opacity="0.41350512339798273"></circle><circle r="8.574730105569099" cx="562.6478519458229" cy="61.65278581333539" opacity="0.9459568235058288"></circle><circle r="9.680910258201788" cx="307.54191387596575" cy="221.5355414551211" opacity="0.7676190025419445"></circle><circle r="6.4456983155406675" cx="94.9207202747314" cy="781.5956506728392" opacity="0.7139288119788243"></circle><circle r="6.685625083810928" cx="740.945054775913" cy="216.39154032387106" opacity="0.31897882769796204"></circle><circle r="4.938350103214207" cx="564.1707717477614" cy="19.474095955472915" opacity="0.8590401610060641"></circle><circle r="5.929462340236273" cx="511.05874799216394" cy="503.6265203157887" opacity="0.1198397878035817"></circle><circle r="8.006329177123323" cx="258.52425126464146" cy="428.45880785485735" opacity="0.7415815369686215"></circle><circle r="8.704797967077063" cx="189.57843988139777" cy="161.18053577973262" opacity="0.560557734815736"></circle><circle r="5.797863989580409" cx="618.6798299744274" cy="242.63672066253045" opacity="0.6459780848013817"></circle><circle r="11.077600599430088" cx="332.6793219795388" cy="286.8850537791596" opacity="0.8370802217516962"></circle><circle r="6.271668576435093" cx="595.5208286678557" cy="461.04393133429323" opacity="0.4859150583118269"></circle><circle r="6.220638955535547" cx="783.4475041407152" cy="106.84210311315012" opacity="0.3223002923426913"></circle><circle r="7.060130842707835" cx="27.251097334817302" cy="97.86623875639428" opacity="0.23667834854869035"></circle><circle r="3.8636963838882874" cx="724.8277319787594" cy="787.2639720546118" opacity="0.785796073884441"></circle><circle r="10.955361673372394" cx="265.39855055384896" cy="29.173944971432487" opacity="0.6505217939290471"></circle><circle r="10.334218480831119" cx="319.91618717351565" cy="641.2331228905492" opacity="0.8531427401410646"></circle><circle r="6.5064805154278655" cx="452.6740147402325" cy="396.0212719923169" opacity="0.6279903256758803"></circle><circle r="7.249643911863701" cx="126.57978055755895" cy="504.6975194652727" opacity="0.7520845524486867"></circle><circle r="9.155080222043093" cx="345.9502997797633" cy="340.7700416887048" opacity="0.9295183925895676"></circle><circle r="6.50178791217413" cx="520.192216311426" cy="23.581039530311987" opacity="0.6325395985459865"></circle><circle r="7.274775814261103" cx="13.307582994715053" cy="32.575676072401365" opacity="0.6894247114077472"></circle><circle r="5.805899969960172" cx="415.13644390849237" cy="425.67680848978597" opacity="0.11330393293385652"></circle><circle r="7.44937638762464" cx="754.4907003570502" cy="591.0774743919599" opacity="0.7439269978098975"></circle><circle r="4.985418245279711" cx="724.4180055765266" cy="594.7946390064269" opacity="0.9775844660930948"></circle><circle r="4.166121349911943" cx="619.0738971373726" cy="25.44121285503048" opacity="0.5949264602343706"></circle><circle r="4.835686014944748" cx="771.3596113225524" cy="141.64017221377875" opacity="0.8821558527946909"></circle><circle r="9.296483200151755" cx="421.4149201681466" cy="372.7404834710213" opacity="0.3592084128223869"></circle><circle r="8.596117648896369" cx="222.16997142563397" cy="667.4311215763072" opacity="0.4269550961732109"></circle><circle r="10.496171335836921" cx="126.84903130675727" cy="240.675703539389" opacity="0.7419539812272483"></circle><circle r="6.527969970700184" cx="423.1775057177707" cy="52.56968907810158" opacity="0.8904802200255527"></circle><circle r="9.611200486355258" cx="525.0307181814127" cy="66.66765716150925" opacity="0.6756952440253675"></circle><circle r="3.999859085698023" cx="648.3543728207324" cy="544.9297692189588" opacity="0.5453892682642364"></circle><circle r="5.769305310468222" cx="512.9077741453834" cy="455.53575068970724" opacity="0.16662120859616641"></circle><circle r="6.895886726233536" cx="352.3122274358634" cy="738.9163633378304" opacity="0.4679639998889662"></circle><circle r="5.794345218386802" cx="707.276992960227" cy="658.478995950356" opacity="0.9323516232721736"></circle><circle r="6.108541792577123" cx="574.0049003114593" cy="746.351699203232" opacity="0.9476218443989646"></circle><circle r="4.335344153823917" cx="653.0528303034098" cy="14.409463340534893" opacity="0.668850630585996"></circle><circle r="8.915389632105141" cx="83.95736689708079" cy="451.16800590190724" opacity="0.16842280892804967"></circle><circle r="7.675570804473599" cx="535.8079279450433" cy="779.3602926140544" opacity="0.5674405555738642"></circle><circle r="9.21915436357644" cx="149.12094943417895" cy="293.85967050209956" opacity="0.4377515237812265"></circle><circle r="6.711452849121976" cx="63.486424723804966" cy="649.0290293017167" opacity="0.9751754974913556"></circle><circle r="8.482047337836278" cx="33.00016867938616" cy="133.25289401849096" opacity="0.37164722077459933"></circle><circle r="4.52910937740575" cx="108.52330204048847" cy="15.373040789439093" opacity="0.5098878756475709"></circle><circle r="10.991722359930794" cx="170.1743480540942" cy="198.8665968779558" opacity="0.9479046845805532"></circle><circle r="5.527567313692816" cx="336.0825107369108" cy="410.7475255394102" opacity="0.6270967411461654"></circle><circle r="7.720983410303585" cx="503.29795292863344" cy="735.7700477709794" opacity="0.4685559161458026"></circle><circle r="11.734614563638145" cx="492.8817602918152" cy="369.32111133185197" opacity="0.5283630159217473"></circle><circle r="6.390817007061067" cx="111.58053500764427" cy="648.4271022610011" opacity="0.12325362856752947"></circle><circle r="5.087534060401314" cx="271.09914751551173" cy="610.2704932019417" opacity="0.5142026081810896"></circle><circle r="13.043421620357494" cx="525.5970613882598" cy="161.73954863556438" opacity="0.2462042831074517"></circle><circle r="6.027964276685943" cx="782.2490649700422" cy="525.9715195134029" opacity="0.8683405628916516"></circle><circle r="10.808772808715883" cx="701.0430187154998" cy="242.50287578426043" opacity="0.8517890846380854"></circle><circle r="7.865262090476378" cx="56.76149176329831" cy="707.1912506564663" opacity="0.9137712567084418"></circle><circle r="8.703475205532811" cx="515.457466410289" cy="237.57274896287777" opacity="0.8245011005779528"></circle><circle r="9.75267649274831" cx="720.3003631315679" cy="749.6191520053934" opacity="0.15610260390221609"></circle><circle r="5.06093259705506" cx="735.172644848997" cy="319.26518495382794" opacity="0.9644748939992834"></circle><circle r="8.12735177347206" cx="548.2031129490863" cy="403.1963741929014" opacity="0.5683817904810372"></circle><circle r="7.120599462791366" cx="644.9318842764908" cy="575.0970250067297" opacity="0.8351878879163132"></circle><circle r="9.34532587562673" cx="517.3973000899304" cy="608.031595542341" opacity="0.802723961889816"></circle><circle r="9.718676466868498" cx="442.109244685932" cy="619.8577457989978" opacity="0.28640620348938084"></circle><circle r="6.278140989123171" cx="471.06969868729084" cy="486.46574376478617" opacity="0.3759227201254367"></circle><circle r="2.778652032340409" cx="14.697662628283053" cy="568.0643250299618" opacity="0.7272069509773835"></circle><circle r="5.242374268642048" cx="251.1177673177888" cy="180.3001050288394" opacity="0.40853340074467104"></circle><circle r="6.219937484331825" cx="278.89606771364976" cy="678.2480541895707" opacity="0.4042089352069972"></circle><circle r="9.247483404668362" cx="19.837410549020966" cy="406.57047981229107" opacity="0.5005991485429193"></circle><circle r="7.0728546994090875" cx="442.20767031823635" cy="335.74907218456116" opacity="0.30828228931426155"></circle><circle r="6.803525385088678" cx="586.0120385756455" cy="115.33792457313234" opacity="0.6220329214543721"></circle><circle r="7.974692320620461" cx="230.37994337430257" cy="383.58897682048547" opacity="0.9493433981944721"></circle><circle r="6.059798624629559" cx="785.3769297168434" cy="585.8426185817674" opacity="0.5737815634446025"></circle><circle r="6.3387382112051895" cx="742.3150989882648" cy="355.9046502856334" opacity="0.9068443704940273"></circle><circle r="7.384231883747011" cx="628.5989836658287" cy="712.4177903632627" opacity="0.9336844454634478"></circle><circle r="3.8925997022634946" cx="24.68118748875455" cy="591.9752628146083" opacity="0.9278160951647216"></circle><circle r="7.991704200951206" cx="391.29620629022156" cy="199.64792447686833" opacity="0.2589749548304931"></circle><circle r="7.560479083554904" cx="68.03656571785694" cy="570.2648505176143" opacity="0.5190749163180981"></circle><circle r="6.516454709098138" cx="573.2404591606795" cy="578.213731724818" opacity="0.8113271922177867"></circle><circle r="9.18522619967083" cx="143.45879917276352" cy="94.08496136796433" opacity="0.5612113768262346"></circle><circle r="5.771024557871775" cx="210.11218197761508" cy="303.2742739184017" opacity="0.8921661189291202"></circle><circle r="6.189330042681833" cx="15.65537802941574" cy="637.407746306182" opacity="0.645873069240012"></circle><circle r="8.367502959125058" cx="438.29573403695" cy="17.006285025657974" opacity="0.529151131927092"></circle><circle r="5.9420959038423105" cx="774.6205037281073" cy="704.3735315626609" opacity="0.4641102128203177"></circle><circle r="8.149235690472013" cx="488.77973905478683" cy="426.05246476156896" opacity="0.8906625338258876"></circle><circle r="7.0755495129737245" cx="298.8170228325852" cy="409.5874240684265" opacity="0.10093653394552315"></circle><circle r="8.359458892450741" cx="178.2082495852441" cy="322.08370694907" opacity="0.7560465273424438"></circle><circle r="4.497555878228119" cx="680.9218132419995" cy="164.87737100854187" opacity="0.5231219170817363"></circle><circle r="6.830251048362976" cx="753.9251300622259" cy="779.4959635281203" opacity="0.7356415824500766"></circle><circle r="8.963357431612252" cx="723.622702900045" cy="33.15232464191499" opacity="0.34476437150500794"></circle><circle r="6.588702471320562" cx="32.65014639969194" cy="453.2002203114946" opacity="0.8423246989509133"></circle><circle r="7.203517503817661" cx="20.079907372764797" cy="491.3365153185779" opacity="0.1920838755623991"></circle><circle r="7.233178674844792" cx="412.5237183436661" cy="726.8939156279547" opacity="0.7340317130103509"></circle><circle r="8.310051076874698" cx="639.2198578534521" cy="439.7102561230074" opacity="0.7619843498428568"></circle><circle r="6.630860048736846" cx="660.8259909055942" cy="50.522105438700486" opacity="0.16471134817119606"></circle><circle r="7.917067163517904" cx="703.933174376107" cy="492.8279989479977" opacity="0.5077450484397165"></circle><circle r="6.5562700430498735" cx="624.8376469611075" cy="56.5000048443977" opacity="0.6522825902326596"></circle><circle r="4.6137458890079515" cx="789.4433769974686" cy="325.7822308843934" opacity="0.3185791625148969"></circle><circle r="8.208055972695131" cx="666.9076834162757" cy="97.5177538169808" opacity="0.9318838297317564"></circle><circle r="6.221727518779506" cx="385.2645631427786" cy="707.3363307651658" opacity="0.6669520290794115"></circle><circle r="7.103522858730114" cx="376.1818635108916" cy="297.0522589552293" opacity="0.46583755658632064"></circle><circle r="5.096779034680939" cx="493.34486015341804" cy="275.195488569786" opacity="0.7378711794899722"></circle><circle r="7.232741847207961" cx="686.1352726528427" cy="592.5277796125876" opacity="0.885470479346018"></circle><circle r="9.825286429682937" cx="426.8563493440523" cy="92.07597688904445" opacity="0.9414672903233429"></circle><circle r="7.430087961418791" cx="375.3745284483633" cy="431.28919219318453" opacity="0.5877271743353027"></circle><circle r="4.21440947158007" cx="459.8631480767454" cy="270.78325709294734" opacity="0.6581985763582927"></circle><circle r="6.238573271542133" cx="162.92810001770093" cy="370.71710317458803" opacity="0.21172113050156183"></circle><circle r="7.471592309009614" cx="573.8988713265567" cy="160.45467391697582" opacity="0.735623825183324"></circle><circle r="4.310567668742599" cx="422.8261270340702" cy="303.62477301775834" opacity="0.30115286308904327"></circle><circle r="9.51282836138913" cx="17.66544668750256" cy="714.0648272328998" opacity="0.5711446298896907"></circle><circle r="9.703086369467407" cx="464.62942313824175" cy="576.7797954301632" opacity="0.18397553688518098"></circle><circle r="10.160964881988928" cx="146.5391150636979" cy="619.8639509631762" opacity="0.6413962078579621"></circle><circle r="5.78318182406267" cx="121.37366970473714" cy="405.3058016496495" opacity="0.9892182346470128"></circle><circle r="4.970552179447803" cx="229.8367072438343" cy="782.9142981301106" opacity="0.572878432878609"></circle><circle r="10.817587105994162" cx="214.54200405477349" cy="460.18369339055926" opacity="0.6345713755117778"></circle><circle r="11.401249386814671" cx="664.5608054531557" cy="281.80688622433297" opacity="0.18339605284156668"></circle><circle r="5.703756323557592" cx="737.7165774553458" cy="116.29971636366182" opacity="0.47405772161786197"></circle><circle r="4.299740800585991" cx="454.99585379594777" cy="68.39946167496879" opacity="0.573635673082603"></circle><circle r="8.872096742831342" cx="267.93001692724033" cy="384.1736048970978" opacity="0.5652508429791079"></circle><circle r="9.002164784126993" cx="591.4701990060541" cy="423.2300326100624" opacity="0.5379229768295914"></circle><circle r="7.580528149807682" cx="664.6777675642264" cy="472.77256271583735" opacity="0.9407960703609555"></circle><circle r="6.561927165386308" cx="299.5682049434172" cy="147.78639288740277" opacity="0.6935000087556239"></circle><circle r="12.866435617614048" cx="638.6494144653641" cy="769.7825563963978" opacity="0.801882541097841"></circle><circle r="8.729814581364778" cx="208.89761968465703" cy="541.7579346174142" opacity="0.9853822933610195"></circle><circle r="6.503512109097435" cx="388.41666124573055" cy="22.183156883020327" opacity="0.6997319752599573"></circle><circle r="6.415915509036567" cx="409.422480553037" cy="595.5375352014419" opacity="0.9362251125007941"></circle><circle r="5.726061635410325" cx="761.1772465515174" cy="13.230328595187421" opacity="0.19687533458443968"></circle><circle r="7.256492585642477" cx="386.2002019965989" cy="463.7557989291248" opacity="0.5174870238054139"></circle><circle r="6.232109845050076" cx="85.22237000377926" cy="41.017710698945955" opacity="0.1864348209440843"></circle><circle r="7.485953825462705" cx="543.9473105458405" cy="658.4259532238051" opacity="0.6848444572371822"></circle><circle r="9.203775319419808" cx="42.53720983108036" cy="355.5547648505004" opacity="0.5354029285638874"></circle><circle r="2.4427278977729965" cx="663.3950762731404" cy="166.56143164057292" opacity="0.45230803649859164"></circle><circle r="6.944829969289335" cx="23.843324948684902" cy="674.3562491434366" opacity="0.5727834978433985"></circle><circle r="6.461880237789938" cx="51.365319554516994" cy="542.1055150449171" opacity="0.10520422683411984"></circle><circle r="4.519948608280356" cx="689.1503697726148" cy="537.7162411104265" opacity="0.773518204160127"></circle><circle r="8.053911338264937" cx="549.8025291912369" cy="361.7248904497966" opacity="0.1196072701831972"></circle><circle r="10.630583900917973" cx="429.2140412150817" cy="209.6298062173458" opacity="0.14266069844671453"></circle><circle r="6.4110096497224465" cx="369.30228872973936" cy="521.2158757956773" opacity="0.522923374309979"></circle><circle r="3.9375562941230338" cx="61.709226690302735" cy="67.88216871935705" opacity="0.7279609390211993"></circle><circle r="4.471509084300108" cx="553.5328965431037" cy="518.5468248114615" opacity="0.550967408699378"></circle><circle r="5.676434797400311" cx="260.15363847733175" cy="312.47117100697307" opacity="0.20478707214858133"></circle><circle r="7.02328333904547" cx="407.60672350629176" cy="486.7829467246235" opacity="0.31109157213620914"></circle><circle r="10.104065856986459" cx="603.6219049483333" cy="198.27809216299147" opacity="0.18336093160624478"></circle><circle r="6.0848435307306215" cx="448.71428289422585" cy="437.8263677681725" opacity="0.20661024840294517"></circle><circle r="4.7982987027852735" cx="50.124275190167474" cy="616.3834470459138" opacity="0.5552359028057372"></circle><circle r="7.501626827980569" cx="784.0895335601164" cy="667.1499787232556" opacity="0.4130183990431193"></circle><circle r="5.581009063870402" cx="785.9582734349532" cy="768.3967924371968" opacity="0.34112544282429236"></circle><circle r="8.46223796018794" cx="87.87356630182825" cy="740.3537735486482" opacity="0.5391350867589652"></circle><circle r="7.859578210291594" cx="631.894815822544" cy="114.12704165188705" opacity="0.6475215052523804"></circle><circle r="10.052599324745605" cx="160.81806948003305" cy="560.7810552109064" opacity="0.18986175581448178"></circle><circle r="9.698974640904703" cx="739.3740980163554" cy="514.1446652717603" opacity="0.7828425703319127"></circle><circle r="5.956718884324204" cx="31.916640677165756" cy="751.9653638189056" opacity="0.817531495582818"></circle><circle r="8.946588272217044" cx="350.93443889913186" cy="228.70448898569094" opacity="0.5490797055275725"></circle><circle r="5.581151349345519" cx="397.15971009196585" cy="158.15708456876808" opacity="0.7840263441980816"></circle><circle r="5.240628088571714" cx="246.35431133559467" cy="345.8986926372376" opacity="0.5266753264508522"></circle><circle r="6.6354648706946895" cx="649.2058606076095" cy="610.7853152992217" opacity="0.7874578111896627"></circle><circle r="4.962344179208463" cx="399.13417552137605" cy="529.4018300731844" opacity="0.9965864659655956"></circle><circle r="8.620614222383551" cx="348.77616947725136" cy="598.3859411036235" opacity="0.15275031216651486"></circle><circle r="7.363016230727249" cx="423.42880586629565" cy="658.227170082668" opacity="0.2573419364813343"></circle><circle r="6.27550453634692" cx="742.4990168920251" cy="553.1106506403506" opacity="0.5763520385678542"></circle><circle r="5.556323037247311" cx="641.0077982241158" cy="79.96723392204412" opacity="0.6064076012825467"></circle><circle r="12.105377491441477" cx="215.75140448447965" cy="26.528542398713963" opacity="0.35411319482041603"></circle><circle r="10.686052642095778" cx="242.90875179573516" cy="84.60951426861848" opacity="0.8988114235097747"></circle><circle r="6.890123485527511" cx="620.1333457623324" cy="364.79328482727374" opacity="0.6234939601686025"></circle><circle r="8.56401129045815" cx="19.592890252115883" cy="177.22566590078733" opacity="0.29295782638412926"></circle><circle r="6.238962521962999" cx="159.7236392638851" cy="22.579190543393963" opacity="0.5695330713529929"></circle><circle r="6.871207236556328" cx="90.75510214597733" cy="109.06799218815463" opacity="0.1782221036431143"></circle><circle r="6.330694350940268" cx="185.44923827339963" cy="66.5989763184299" opacity="0.39900148149317605"></circle><circle r="6.832120392579048" cx="433.2477646417613" cy="546.5441673338096" opacity="0.3291538609985671"></circle><circle r="3.291491425588379" cx="766.9053434479674" cy="338.4963312402847" opacity="0.38132295954898543"></circle><circle r="4.187183272745465" cx="778.4937713596354" cy="77.58383278130846" opacity="0.9380965363563654"></circle><circle r="5.8369878537914675" cx="669.4817520571077" cy="214.37720159131925" opacity="0.589168092329985"></circle><circle r="8.702879908687263" cx="672.4562643881654" cy="655.2534903655913" opacity="0.8628548478915965"></circle><circle r="7.18341011035899" cx="377.18364358206003" cy="780.5762461609369" opacity="0.9258180135138843"></circle><circle r="8.859259583867248" cx="356.10327124004783" cy="680.3666712765303" opacity="0.7030465054623114"></circle><circle r="8.31544154073344" cx="130.24209717489052" cy="365.9254680114079" opacity="0.4756694251955699"></circle><circle r="8.086764159279198" cx="309.7706164269047" cy="492.94288805393825" opacity="0.6022676063355542"></circle><circle r="9.674536710955135" cx="288.9317391412685" cy="279.76308794647093" opacity="0.720544891266608"></circle><circle r="5.026829851004339" cx="686.2932473946538" cy="781.2880837119864" opacity="0.37703772479980446"></circle><circle r="10.724939197009348" cx="256.19686956912716" cy="710.0330645745026" opacity="0.3244745356935711"></circle><circle r="8.245902190379477" cx="679.9251334719432" cy="739.3220876559157" opacity="0.5339653720203732"></circle><circle r="5.198631755357222" cx="30.597957122867253" cy="64.00064505443025" opacity="0.583843346256529"></circle><circle r="3.8157457439276996" cx="763.2644663730375" cy="302.8378729820478" opacity="0.44898667529494773"></circle><circle r="7.568078203456301" cx="82.15209518112866" cy="677.6696109319295" opacity="0.22509959964738488"></circle><circle r="8.35068038753314" cx="123.61313921733343" cy="58.411709285889586" opacity="0.2946062806442943"></circle><circle r="4.512643456699065" cx="655.8917085722146" cy="398.9776274229501" opacity="0.7801137711432827"></circle><circle r="6.547081818417324" cx="586.8939253018851" cy="335.5644088457676" opacity="0.20332264789498217"></circle><circle r="4.374480067001423" cx="310.21864121392986" cy="376.4365467580064" opacity="0.14783462989687818"></circle><circle r="4.847037548123611" cx="600.9574955661457" cy="86.20310807936875" opacity="0.8982127080582027"></circle><circle r="7.575434040159081" cx="101.48419126356694" cy="141.8553174654835" opacity="0.2054647415989418"></circle><circle r="9.360356843610127" cx="170.22454006381878" cy="482.68970933363295" opacity="0.5043424749323011"></circle><circle r="8.742097903456996" cx="202.0479320825323" cy="704.3988703764264" opacity="0.9832596311508598"></circle><circle r="5.153481260361318" cx="425.769424669993" cy="692.2305680875997" opacity="0.10186290959846811"></circle><circle r="6.824369171702458" cx="140.62738879460693" cy="447.48274058458213" opacity="0.21652583787229351"></circle><circle r="4.90287942795128" cx="33.561925486427505" cy="785.0708193966104" opacity="0.13362035216219953"></circle><circle r="5.68434246142886" cx="584.7894952093991" cy="504.48918928127904" opacity="0.7175398163840278"></circle><circle r="5.156347100353974" cx="693.6751698260792" cy="132.16282903659695" opacity="0.5497588258190783"></circle><circle r="7.289011322306427" cx="742.3174463010463" cy="661.9043060341551" opacity="0.8357510310818315"></circle><circle r="10.865910029295872" cx="325.8205104948179" cy="25.954075579997426" opacity="0.9243009243100869"></circle><circle r="5.551001857122551" cx="526.3627154440376" cy="292.154795553097" opacity="0.6699694910274645"></circle><circle r="6.150542476244033" cx="761.5135124910092" cy="738.1767324631809" opacity="0.3588307297054999"></circle><circle r="4.783554994924861" cx="419.48583095996685" cy="785.4308231749538" opacity="0.43882194096652305"></circle><circle r="5.671285140336913" cx="474.99429140492714" cy="41.536435967815976" opacity="0.8524661644118499"></circle><circle r="7.077800382869292" cx="782.008272388935" cy="224.91746947354517" opacity="0.9321898417477246"></circle><circle r="6.090074222220291" cx="135.35668627292677" cy="757.0207681202497" opacity="0.8010031695781117"></circle><circle r="7.727665839076357" cx="486.2753510994593" cy="71.94824412954125" opacity="0.2547551664914137"></circle><circle r="6.539584402579114" cx="387.3658057542689" cy="250.61457481948875" opacity="0.9779470990222591"></circle><circle r="8.4515966603698" cx="124.4161610026789" cy="182.56130345836067" opacity="0.2053160382651549"></circle><circle r="6.116797607002772" cx="207.00868358299186" cy="420.40273376055467" opacity="0.10052274925350597"></circle><circle r="4.474391532873081" cx="221.8989886001754" cy="170.40990687563925" opacity="0.6012356180549042"></circle><circle r="5.625024840404412" cx="249.91537744205527" cy="523.7749969512645" opacity="0.969412697504489"></circle><circle r="7.27986420480388" cx="779.9938693286259" cy="436.14840708068255" opacity="0.33420063492529506"></circle><circle r="7.459406592016858" cx="762.8047702006083" cy="392.44336533289066" opacity="0.35764301968426093"></circle><circle r="5.2769869485354866" cx="664.1734510018844" cy="510.7665832495025" opacity="0.6929892287483531"></circle><circle r="8.361960703177344" cx="638.9433445377679" cy="182.38856039871416" opacity="0.46916663462131136"></circle><circle r="10.956108179082003" cx="314.71329508749227" cy="709.2426336502788" opacity="0.5100947185743709"></circle><circle r="6.479594006426467" cx="614.2195544581726" cy="145.99899041479097" opacity="0.6938275542060174"></circle><circle r="5.652435690340462" cx="327.04385416277717" cy="777.9880275386819" opacity="0.9220681218926808"></circle><circle r="11.178991477891387" cx="212.39089288945596" cy="583.2065360954249" opacity="0.9615778804624538"></circle><circle r="10.333810164012402" cx="548.8347051943429" cy="314.77173006815434" opacity="0.8760282623317923"></circle><circle r="6.4398598029263106" cx="339.04114885479703" cy="447.2669139284765" opacity="0.3045845995823834"></circle><circle r="12.952646067359018" cx="279.007708084405" cy="761.4343246939321" opacity="0.9748380396204658"></circle><circle r="3.951766329236758" cx="116.9823774121666" cy="340.55980905842756" opacity="0.5368717949618028"></circle><circle r="7.882197601830445" cx="599.3560795476176" cy="283.40233646732077" opacity="0.6835940075045654"></circle><circle r="8.490104203219351" cx="28.24718000841446" cy="273.3041280683065" opacity="0.6148782841110145"></circle><circle r="5.218832320603905" cx="440.46849755136583" cy="731.6034012276418" opacity="0.999499396439452"></circle><circle r="6.560436941338883" cx="72.04815587804397" cy="503.65094957442506" opacity="0.1842181734277984"></circle><circle r="7.4133845571102785" cx="488.12509517878203" cy="653.0317597155257" opacity="0.24582509837395605"></circle><circle r="7.350999201738352" cx="93.92575110162454" cy="312.2141405612852" opacity="0.7215491843102924"></circle><circle r="6.395329351805543" cx="667.8524521098267" cy="342.8945241156085" opacity="0.25704728803813237"></circle><circle r="9.340336560410616" cx="593.3035358468024" cy="662.301194855969" opacity="0.5426087439552207"></circle><circle r="2.5047427230995245" cx="9.708814725010749" cy="544.0656863994878" opacity="0.9209645193414056"></circle><circle r="7.003769758084797" cx="49.285388451402376" cy="18.179971023924" opacity="0.17050422873184046"></circle><circle r="10.34365317953492" cx="475.5713837642536" cy="189.27700131889472" opacity="0.9631416176674287"></circle><circle r="8.357904585089976" cx="556.0978478135928" cy="225.54946496798445" opacity="0.556667432996714"></circle><circle r="5.0801172219856845" cx="685.3915504813459" cy="385.65020367552665" opacity="0.2288908710330096"></circle><circle r="5.642981712952526" cx="413.0947524990046" cy="276.2425245363575" opacity="0.24335572324675378"></circle><circle r="5.084303238893446" cx="202.3226232963909" cy="349.5588371857556" opacity="0.7101771951940495"></circle><circle r="5.702726714580631" cx="690.1228602997699" cy="439.26401379718084" opacity="0.7711137511351399"></circle><circle r="6.108661334832314" cx="552.261012817996" cy="458.693163050884" opacity="0.9455336495594651"></circle><circle r="6.236041877980765" cx="505.9232559741768" cy="107.70060359365027" opacity="0.2915392208725089"></circle><circle r="6.590356137594126" cx="271.40866898537115" cy="201.67392044004214" opacity="0.931922585128521"></circle><circle r="7.828445661783118" cx="479.70190863455093" cy="317.335981892928" opacity="0.19949526950013544"></circle><circle r="8.172776252450028" cx="303.5957635385312" cy="446.11913255758503" opacity="0.9552928614293242"></circle><circle r="8.296522377856382" cx="74.89672945154734" cy="279.18842638492214" opacity="0.7553340312915707"></circle><circle r="8.957242542475598" cx="604.5727684216272" cy="552.70315029016" opacity="0.3754473168298821"></circle><circle r="7.615333067275012" cx="158.1438296075346" cy="133.8309552339307" opacity="0.8122565452854624"></circle><circle r="8.320372593709678" cx="374.00324376468484" cy="639.2400614495858" opacity="0.47991874968644854"></circle><circle r="6.304747240402086" cx="463.75164826615514" cy="108.46455735533225" opacity="0.1605890227903449"></circle><circle r="9.781312229896926" cx="258.5049761622134" cy="244.7115549192649" opacity="0.8530469615535666"></circle><circle r="12.038481093400659" cx="182.84710974161834" cy="250.91998112339488" opacity="0.6636085318416283"></circle><circle r="8.295394268103953" cx="392.0511176966532" cy="343.9992038010703" opacity="0.34964637695136436"></circle><circle r="9.332299073149105" cx="18.516783086591605" cy="230.24893066959763" opacity="0.6436447811308422"></circle><circle r="6.838101626459901" cx="767.3714883066907" cy="176.78341980292964" opacity="0.3581198602700877"></circle><circle r="7.68812709717333" cx="627.4916993426556" cy="321.88601288541435" opacity="0.6937538515828492"></circle><circle r="5.391207952350025" cx="473.019563208713" cy="229.857304140676" opacity="0.5978906099001796"></circle><circle r="9.27961937641877" cx="682.323038762803" cy="699.8873626917447" opacity="0.6484762557100898"></circle><circle r="10.069353607674092" cx="486.3287423093103" cy="543.4833964304396" opacity="0.895561740262269"></circle><circle r="5.352980767720585" cx="398.2508663903113" cy="119.24056731422746" opacity="0.11130203900425825"></circle><circle r="4.43677321831924" cx="360.76795224182786" cy="498.12397108618245" opacity="0.46250508556335534"></circle><circle r="8.807161794075665" cx="171.77469480069655" cy="770.4908928148155" opacity="0.3948400192338031"></circle><circle r="5.330924570730275" cx="782.0772997269487" cy="273.6677242408249" opacity="0.7547186099556017"></circle><circle r="7.22368914183508" cx="730.44579030175" cy="711.7387525488376" opacity="0.57338788158912"></circle><circle r="2.9264206000630284" cx="600.3978456253985" cy="10.239345735451915" opacity="0.758880917142738"></circle><circle r="8.420558919501467" cx="71.54571072135184" cy="394.8867697707447" opacity="0.6083848672224225"></circle><circle r="6.738462024311064" cx="431.3008335685247" cy="462.37948465599885" opacity="0.2271794590604827"></circle><circle r="5.166418503843465" cx="83.1793667739509" cy="83.32909143872365" opacity="0.2515759187882619"></circle><circle r="4.344656018179911" cx="615.1389072692948" cy="397.836418323748" opacity="0.32978871455801845"></circle><circle r="7.021377619208506" cx="256.50431213534694" cy="132.3322711873427" opacity="0.6874383002849296"></circle><circle r="4.469915965428866" cx="244.77266968500587" cy="636.7153811508514" opacity="0.4513030050989755"></circle><circle r="5.091030405091131" cx="284.11046507811244" cy="646.9155730849403" opacity="0.8156458985116029"></circle><circle r="4.760312821396394" cx="716.8137719938289" cy="377.0285341822286" opacity="0.31162507290513025"></circle><circle r="7.1212041446810685" cx="195.0070287951162" cy="632.1383659679925" opacity="0.853475786372215"></circle><circle r="8.438465237153896" cx="332.008751743759" cy="97.93799198538395" opacity="0.7651810520301768"></circle><circle r="7.722320400051631" cx="279.5765883671276" cy="573.42902007234" opacity="0.4682387186778575"></circle><circle r="11.491327743768965" cx="155.76518386816582" cy="692.1551940181942" opacity="0.7063125674966171"></circle><circle r="5.631393607029029" cx="702.2652758572442" cy="562.0940889747951" opacity="0.8095357954958351"></circle><circle r="4.909004410216576" cx="788.3434957444721" cy="375.213971185932" opacity="0.6195162685621419"></circle><circle r="5.088919711698384" cx="228.52108877018892" cy="273.2888240823168" opacity="0.858943743249008"></circle><circle r="6.584111486297749" cx="767.2745493492503" cy="630.3260455870135" opacity="0.37053696440142536"></circle><circle r="6.599179023588956" cx="266.54782285540927" cy="491.195812801796" opacity="0.3345152372391927"></circle><circle r="11.232163766781532" cx="205.82151918846637" cy="115.51142051325519" opacity="0.6227820873200643"></circle><circle r="4.964283005287121" cx="345.26714824107535" cy="476.912326757631" opacity="0.5654414453478167"></circle><circle r="9.07997604168898" cx="702.9386686133421" cy="87.11476621668034" opacity="0.6430979365907664"></circle><circle r="4.961068346531934" cx="476.6658918652626" cy="696.5469560319127" opacity="0.2560005224039467"></circle><circle r="9.158538139399361" cx="702.5156088306303" cy="313.9066889075281" opacity="0.2979604702865716"></circle><circle r="4.5529899250735575" cx="787.8047839957542" cy="29.956386753886143" opacity="0.146615359024313"></circle><circle r="7.299287367005856" cx="627.6260155564348" cy="517.7940298953613" opacity="0.4431582660171002"></circle><circle r="4.4624110159260955" cx="622.4525889760952" cy="484.2103911405513" opacity="0.7854248155332977"></circle><circle r="7.29360508386138" cx="452.8009757390479" cy="777.153309181804" opacity="0.4517937312907979"></circle><circle r="7.591315437821704" cx="22.42938076267185" cy="317.7973529807976" opacity="0.5617981124099994"></circle><circle r="12.177923187641307" cx="342.8784424694701" cy="165.70041678009585" opacity="0.2960663119281497"></circle><circle r="5.779114935587543" cx="22.51501770841495" cy="525.1136521697665" opacity="0.8828488874364574"></circle><circle r="6.182494469369649" cx="289.97134729068523" cy="76.7726961411521" opacity="0.34460778968450334"></circle><circle r="9.086369640423307" cx="299.4381860447937" cy="337.92132721594663" opacity="0.8309923204479978"></circle><circle r="5.153499076898957" cx="706.1530584063312" cy="625.5563088485549" opacity="0.1117926283889926"></circle><circle r="6.61543237420487" cx="199.60383631002935" cy="507.24531438042425" opacity="0.7145803188683956"></circle><circle r="7.779525866522531" cx="216.61473340260733" cy="219.0732910674669" opacity="0.44223159891124486"></circle><circle r="5.14197053673704" cx="533.3132264857113" cy="722.8601259463937" opacity="0.269231945255692"></circle><circle r="5.489383746270748" cx="396.8504827929472" cy="399.8314926536714" opacity="0.10712940058613284"></circle><circle r="10.115255376043162" cx="114.2557011768852" cy="550.7367275971334" opacity="0.613492020882083"></circle><circle r="7.962202013997414" cx="758.6053278800983" cy="474.36524308102804" opacity="0.5135485677247825"></circle><circle r="5.181379163899187" cx="213.7894764850647" cy="745.9963209357734" opacity="0.6296034587453444"></circle><circle r="8.083582972455028" cx="433.06635757060053" cy="251.07366972005033" opacity="0.5689178077385499"></circle><circle r="6.888451755464719" cx="594.6306370926119" cy="49.787867903395366" opacity="0.8291319778723567"></circle><circle r="4.718430162502254" cx="468.2280567145478" cy="741.3397286274251" opacity="0.882389813329879"></circle><circle r="4.99563202700513" cx="592.4089851171883" cy="779.1907283028329" opacity="0.4461800862376373"></circle><circle r="7.01910157859642" cx="492.3078982131631" cy="780.1213541364392" opacity="0.8574996914497323"></circle><circle r="8.838351898319992" cx="340.28772535447837" cy="557.296311496745" opacity="0.6627725765904009"></circle><circle r="8.097767917591494" cx="68.37355148436588" cy="228.37258416418143" opacity="0.3008493470424233"></circle><circle r="9.760810758485814" cx="362.2305428051406" cy="384.33280858428714" opacity="0.5141311458400462"></circle><circle r="4.435825226301207" cx="772.1917659434839" cy="51.754471920239475" opacity="0.6919024015195672"></circle><circle r="6.469908060943893" cx="109.5475275765748" cy="703.1836153846934" opacity="0.7981505002255027"></circle><circle r="6.0074251037536595" cx="548.8039660400652" cy="108.75301859661838" opacity="0.880724195806032"></circle><circle r="4.918137541924211" cx="403.8659846156258" cy="754.6658701558354" opacity="0.8163609002475388"></circle><circle r="10.79773353606362" cx="98.51308477274596" cy="595.1364079343494" opacity="0.6197268046311349"></circle><circle r="6.359706034267761" cx="181.56262973356215" cy="397.3057545419411" opacity="0.5519848117926445"></circle><circle r="7.081275690494144" cx="565.4796981698904" cy="701.6599382548701" opacity="0.14864483105181245"></circle><circle r="6.728800219167866" cx="742.1010162704723" cy="65.18231972121082" opacity="0.38533565068545605"></circle><circle r="5.289289483899282" cx="521.8599071727596" cy="550.6201196957842" opacity="0.5648816441703551"></circle><circle r="10.447526074968835" cx="634.2662322272298" cy="654.8887559188515" opacity="0.4950903588814429"></circle><circle r="9.17928272061261" cx="593.1626233522745" cy="610.7783391912423" opacity="0.7644077845995954"></circle><circle r="10.71369326455789" cx="736.2994137253405" cy="270.3832198509587" opacity="0.3239360471809348"></circle><circle r="4.379309544518554" cx="268.34530311385197" cy="461.85404246511285" opacity="0.4506469374514669"></circle><circle r="8.828618244716488" cx="729.8216391333475" cy="426.517256546752" opacity="0.6812684843866674"></circle><circle r="9.183889258264053" cx="66.81374358489795" cy="179.70125171712348" opacity="0.7285574463137547"></circle><circle r="5.315696769035755" cx="717.4498638318474" cy="686.0673789931371" opacity="0.9450049840828147"></circle><circle r="5.381665952796277" cx="437.3390474980067" cy="507.60846957330125" opacity="0.5599569825687788"></circle><circle r="7.798321514876944" cx="463.96084722532765" cy="147.50852896896933" opacity="0.47078010500518186"></circle></g></svg>